<?xml version="1.0" encoding="UTF-8" standalone="no"?>
<!-- Created with Inkscape (http://www.inkscape.org/) -->

<svg
   width="300mm"
   height="300mm"
   viewBox="0 0 300 300"
   version="1.1"
   id="svg1"
   sodipodi:docname="artfacts.svg"
   inkscape:version="1.3 (0e150ed6c4, 2023-07-21)"
   xmlns:inkscape="http://www.inkscape.org/namespaces/inkscape"
   xmlns:sodipodi="http://sodipodi.sourceforge.net/DTD/sodipodi-0.dtd"
   xmlns="http://www.w3.org/2000/svg"
   xmlns:svg="http://www.w3.org/2000/svg"
   xmlns:rdf="http://www.w3.org/1999/02/22-rdf-syntax-ns#"
   xmlns:cc="http://creativecommons.org/ns#"
   xmlns:dc="http://purl.org/dc/elements/1.1/">
  <defs
     id="defs1" />
  <sodipodi:namedview
     id="base"
     pagecolor="#ffffff"
     bordercolor="#000000"
     borderopacity="0.3"
     inkscape:pageopacity="0.0"
     inkscape:pageshadow="2"
     inkscape:zoom="0.90509668"
     inkscape:cx="634.1864"
     inkscape:cy="815.93494"
     inkscape:document-units="mm"
     inkscape:showpageshadow="2"
     inkscape:pagecheckerboard="0"
     inkscape:deskcolor="#d1d1d1"
     inkscape:window-width="1920"
     inkscape:window-height="1017"
     inkscape:window-x="-8"
     inkscape:window-y="-8"
     inkscape:window-maximized="1"
     inkscape:current-layer="svg1" />
  <metadata
     id="metadata1">
    <rdf:RDF>
      <cc:Work
         rdf:about="">
        <dc:format>image/svg+xml</dc:format>
        <dc:type
           rdf:resource="http://purl.org/dc/dcmitype/StillImage" />
      </cc:Work>
    </rdf:RDF>
  </metadata>
  <path
     d="m 10.132198,10.132198 v 5.000212 h 3.000334 v 29.999719 h -3.000334 v 30.000236 h 3.000334 v 29.999715 h -3.000334 v 30.00024 h 3.000334 v 29.99972 h -3.000334 v 5.00021 h 5.000212 29.999719 v -2.99982 h 30.000236 v 2.99982 h 29.999715 v -2.99982 h 30.00024 v 2.99982 h 5.00021 v -5.00021 h -3.00033 v -29.99972 h 3.00033 V 105.13208 H 137.1322 V 75.132365 h 3.00033 V 45.132129 H 137.1322 V 15.13241 h 3.00033 v -5.000212 h -5.00021 v 3.000334 H 105.13208 V 10.132198 H 75.132365 v 3.000334 H 45.132129 V 10.132198 H 15.13241 Z"
     style="fill:none;stroke:#000000;stroke-width:0.264583"
     id="path12"
     inkscape:label="base" />
  <path
     d="m 10.13219,173.98731 v 3.99976 h 3.00034 v 25.00002 h -3.00034 v 25.00003 h 3.00034 v 25.00002 h -3.00034 v 15.0363 h 130.00034 v -14.77172 h -3.00034 V 228.2517 h 3.00034 v -25.00003 h -3.00034 v -25.00002 h 3.00034 v -4.26434 z"
     style="fill:none;stroke:#000000;stroke-width:0.264583"
     id="path18"
     inkscape:label="toit" />
  <path
     d="m 148.40076,10.132198 v 5.000212 h -2.99982 v 29.999719 h 2.99982 v 30.000236 h -2.99982 v 29.999715 h 2.99982 v 30.00024 h -2.99982 v 29.99972 h 2.99982 v 5.00021 h 2.0004 v -2.99982 h 29.99971 v 2.99982 h 5.00022 v -5.49992 h -2.99982 v -9.99991 h 2.99982 v -5.49992 l 24.953,-32.90187 h -2.98122 v -15.12672 h 0.0284 2.99982 V 76.132304 h -2.99982 V 51.132279 h 2.99982 V 26.132255 25.910046 h -3.04271 v -3.777547 h -21.95731 v -2.425175 h -2.99982 v -5.000211 h 2.99982 v -4.574915 h -5.00022 v 3.000334 h -29.99971 v -3.000334 z"
     style="fill:none;stroke:#000000;stroke-width:0.264583"
     id="path31"
     inkscape:label="cote" />
  <path
     d="m 222.95125,10.132198 v 5.000212 h -2.99982 v 29.999719 h 2.99982 V 75.13236 h -2.99982 v 29.99972 h 2.99982 v 30.00024 h -2.99982 v 29.99972 h 2.99982 v 5.00021 h 2.0004 v -2.99982 h 29.99971 v 2.99982 h 5.00022 v -5.49992 h -2.99982 v -9.99991 h 2.99982 v -5.49992 l 24.953,-32.90187 h -2.98122 v -15.12672 h 0.0284 2.99982 V 76.1323 h -2.99982 V 51.132279 h 2.99982 V 26.132255 25.910046 h -3.04271 v -3.777547 h -21.95731 v -2.425175 h -2.99982 v -5.000211 h 2.99982 v -4.574915 h -5.00022 v 3.000334 h -29.99971 v -3.000334 z"
     style="fill:none;stroke:#000000;stroke-width:0.264583"
     id="path31-0"
     inkscape:label="cote 2" />
  <circle
     style="fill:none;fill-opacity:1;stroke:#000000;stroke-width:0.264583;stroke-opacity:1"
     id="path32"
     cx="42.374676"
     cy="51.26302"
     r="4" />
  <circle
     style="fill:none;fill-opacity:1;stroke:#000000;stroke-width:0.264583;stroke-opacity:1"
     id="path32-6"
     cx="105.4677"
     cy="51.26302"
     r="4" />
  <rect
     style="fill:none;fill-opacity:1;stroke:#000000;stroke-width:0.264583;stroke-opacity:1"
     id="rect33"
     width="3"
     height="5"
     x="61.805012"
     y="157.70364" />
  <rect
     style="fill:none;fill-opacity:1;stroke:#000000;stroke-width:0.264583;stroke-opacity:1"
     id="rect33-1"
     width="3"
     height="5"
     x="83.360283"
     y="157.70364" />
  <path
     d="m 13.13201,271.9834 v 5.49992 h -2.99982 v 9.9999 h 2.99982 v 5.50044 h 124.00018 v -5.50044 h 2.99982 v -9.9999 h -2.99982 v -5.49992 h -12.54342 v 2.99981 H 104.58844 V 271.9834 H 84.58863 v 2.99981 H 64.58881 V 271.9834 H 44.58848 v 2.99981 H 24.58867 v -2.99981 z"
     style="fill:none;stroke:#000000;stroke-width:0.264583"
     id="path36" />
  <path
     d="m 149.8802,269.84718 v 4.47518 h -2.99982 v 5.09943 h 2.99982 v 2.42518 h 124.00018 v -2.42518 h 2.99982 v -5.09943 h -2.99982 v -4.47518 h -12.0003 v 2.99982 h -19.99982 v -2.99982 h -19.99981 v 2.99982 h -20.00033 v -2.99982 H 181.88031 V 272.847 H 161.8805 v -2.99982 z"
     style="fill:none;stroke:#000000;stroke-width:0.264583"
     id="path37" />
  <path
     d="m 146.87779,220.41609 v 2.99981 h 3.00241 v 1.99988 h -2.99982 v 30.00024 h 2.99982 v 2.00039 h 12.0003 v 2.99982 h 19.99981 v -2.99982 h 19.99981 v 2.99982 h 20.00033 v -2.99982 h 19.99981 v 2.99982 h 19.99982 v -2.99982 h 12.0003 v -2.00039 h 2.99982 v -30.00024 h -2.99982 v -1.99988 h 2.99982 v -2.99981 h -5.00022 v 2.99981 h -30.00023 v -2.99981 h -29.9992 v 2.99981 h -30.00282 v -2.99981 z"
     style="fill:none;stroke:#000000;stroke-width:0.264583"
     id="path41" />
  <path
     d="m 211.88055,173.98533 v 2.99982 h -30.52579 v -2.95486 h -34.47438 v 2.95486 h 3.00033 v 1.99987 h -3.00033 v 30.00024 h 3.00033 v 1.99988 h 12.0003 v 2.99981 h 19.99982 v -2.99981 h 19.99981 v 2.99981 h 20.00033 v -2.99981 h 19.99981 v 2.99981 h 19.9993 v -2.99981 h 12.0003 v -1.99988 h 3.00033 v -30.00024 h -3.00033 v -1.99987 h 2.99982 v -2.99982 h -5.00022 v 2.99982 h -29.99972 v -2.99982 z"
     style="fill:none;stroke:#000000;stroke-width:0.260613"
     id="path42" />
</svg>
