999
"DXF R12 Output" (www.mydxf.blogspot.com)
 0 
SECTION
 2 
HEADER
 9 
$ACADVER
 1 
AC1009
 9 
$EXTMIN
 10 
 0 
 20 
 0 
 9 
$EXTMAX
 10 
 8.5 
 20 
 11 
 0 
ENDSEC
 0 
SECTION
 2 
ENTITIES
0
LINE
8
Layer 1
10
10.132198
20
289.867802
11
10.132198
21
284.867590
0
LINE
8
Layer 1
10
10.132198
20
284.867590
11
13.132532
21
284.867590
0
LINE
8
Layer 1
10
13.132532
20
284.867590
11
13.132532
21
254.867871
0
LINE
8
Layer 1
10
13.132532
20
254.867871
11
10.132198
21
254.867871
0
LINE
8
Layer 1
10
10.132198
20
254.867871
11
10.132198
21
224.867635
0
LINE
8
Layer 1
10
10.132198
20
224.867635
11
13.132532
21
224.867635
0
LINE
8
Layer 1
10
13.132532
20
224.867635
11
13.132532
21
194.867920
0
LINE
8
Layer 1
10
13.132532
20
194.867920
11
10.132198
21
194.867920
0
LINE
8
Layer 1
10
10.132198
20
194.867920
11
10.132198
21
164.867680
0
LINE
8
Layer 1
10
10.132198
20
164.867680
11
13.132532
21
164.867680
0
LINE
8
Layer 1
10
13.132532
20
164.867680
11
13.132532
21
134.867960
0
LINE
8
Layer 1
10
13.132532
20
134.867960
11
10.132198
21
134.867960
0
LINE
8
Layer 1
10
10.132198
20
134.867960
11
10.132198
21
129.867750
0
LINE
8
Layer 1
10
10.132198
20
129.867750
11
15.132410
21
129.867750
0
LINE
8
Layer 1
10
15.132410
20
129.867750
11
45.132129
21
129.867750
0
LINE
8
Layer 1
10
45.132129
20
129.867750
11
45.132129
21
132.867570
0
LINE
8
Layer 1
10
45.132129
20
132.867570
11
75.132365
21
132.867570
0
LINE
8
Layer 1
10
75.132365
20
132.867570
11
75.132365
21
129.867750
0
LINE
8
Layer 1
10
75.132365
20
129.867750
11
105.132080
21
129.867750
0
LINE
8
Layer 1
10
105.132080
20
129.867750
11
105.132080
21
132.867570
0
LINE
8
Layer 1
10
105.132080
20
132.867570
11
135.132320
21
132.867570
0
LINE
8
Layer 1
10
135.132320
20
132.867570
11
135.132320
21
129.867750
0
LINE
8
Layer 1
10
135.132320
20
129.867750
11
140.132530
21
129.867750
0
LINE
8
Layer 1
10
140.132530
20
129.867750
11
140.132530
21
134.867960
0
LINE
8
Layer 1
10
140.132530
20
134.867960
11
137.132200
21
134.867960
0
LINE
8
Layer 1
10
137.132200
20
134.867960
11
137.132200
21
164.867680
0
LINE
8
Layer 1
10
137.132200
20
164.867680
11
140.132530
21
164.867680
0
LINE
8
Layer 1
10
140.132530
20
164.867680
11
140.132530
21
194.867920
0
LINE
8
Layer 1
10
140.132530
20
194.867920
11
137.132200
21
194.867920
0
LINE
8
Layer 1
10
137.132200
20
194.867920
11
137.132200
21
224.867635
0
LINE
8
Layer 1
10
137.132200
20
224.867635
11
140.132530
21
224.867635
0
LINE
8
Layer 1
10
140.132530
20
224.867635
11
140.132530
21
254.867871
0
LINE
8
Layer 1
10
140.132530
20
254.867871
11
137.132200
21
254.867871
0
LINE
8
Layer 1
10
137.132200
20
254.867871
11
137.132200
21
284.867590
0
LINE
8
Layer 1
10
137.132200
20
284.867590
11
140.132530
21
284.867590
0
LINE
8
Layer 1
10
140.132530
20
284.867590
11
140.132530
21
289.867802
0
LINE
8
Layer 1
10
140.132530
20
289.867802
11
135.132320
21
289.867802
0
LINE
8
Layer 1
10
135.132320
20
289.867802
11
135.132320
21
286.867468
0
LINE
8
Layer 1
10
135.132320
20
286.867468
11
105.132080
21
286.867468
0
LINE
8
Layer 1
10
105.132080
20
286.867468
11
105.132080
21
289.867802
0
LINE
8
Layer 1
10
105.132080
20
289.867802
11
75.132365
21
289.867802
0
LINE
8
Layer 1
10
75.132365
20
289.867802
11
75.132365
21
286.867468
0
LINE
8
Layer 1
10
75.132365
20
286.867468
11
45.132129
21
286.867468
0
LINE
8
Layer 1
10
45.132129
20
286.867468
11
45.132129
21
289.867802
0
LINE
8
Layer 1
10
45.132129
20
289.867802
11
15.132410
21
289.867802
0
LINE
8
Layer 1
10
15.132410
20
289.867802
11
10.132198
21
289.867802
0
LINE
8
Layer 1
10
10.132190
20
126.012690
11
10.132190
21
122.012930
0
LINE
8
Layer 1
10
10.132190
20
122.012930
11
13.132530
21
122.012930
0
LINE
8
Layer 1
10
13.132530
20
122.012930
11
13.132530
21
97.012910
0
LINE
8
Layer 1
10
13.132530
20
97.012910
11
10.132190
21
97.012910
0
LINE
8
Layer 1
10
10.132190
20
97.012910
11
10.132190
21
72.012880
0
LINE
8
Layer 1
10
10.132190
20
72.012880
11
13.132530
21
72.012880
0
LINE
8
Layer 1
10
13.132530
20
72.012880
11
13.132530
21
47.012860
0
LINE
8
Layer 1
10
13.132530
20
47.012860
11
10.132190
21
47.012860
0
LINE
8
Layer 1
10
10.132190
20
47.012860
11
10.132190
21
31.976560
0
LINE
8
Layer 1
10
10.132190
20
31.976560
11
140.132530
21
31.976560
0
LINE
8
Layer 1
10
140.132530
20
31.976560
11
140.132530
21
46.748280
0
LINE
8
Layer 1
10
140.132530
20
46.748280
11
137.132190
21
46.748280
0
LINE
8
Layer 1
10
137.132190
20
46.748280
11
137.132190
21
71.748300
0
LINE
8
Layer 1
10
137.132190
20
71.748300
11
140.132530
21
71.748300
0
LINE
8
Layer 1
10
140.132530
20
71.748300
11
140.132530
21
96.748330
0
LINE
8
Layer 1
10
140.132530
20
96.748330
11
137.132190
21
96.748330
0
LINE
8
Layer 1
10
137.132190
20
96.748330
11
137.132190
21
121.748350
0
LINE
8
Layer 1
10
137.132190
20
121.748350
11
140.132530
21
121.748350
0
LINE
8
Layer 1
10
140.132530
20
121.748350
11
140.132530
21
126.012690
0
LINE
8
Layer 1
10
140.132530
20
126.012690
11
10.132190
21
126.012690
0
LINE
8
Layer 1
10
148.400760
20
289.867802
11
148.400760
21
284.867590
0
LINE
8
Layer 1
10
148.400760
20
284.867590
11
145.400940
21
284.867590
0
LINE
8
Layer 1
10
145.400940
20
284.867590
11
145.400940
21
254.867871
0
LINE
8
Layer 1
10
145.400940
20
254.867871
11
148.400760
21
254.867871
0
LINE
8
Layer 1
10
148.400760
20
254.867871
11
148.400760
21
224.867635
0
LINE
8
Layer 1
10
148.400760
20
224.867635
11
145.400940
21
224.867635
0
LINE
8
Layer 1
10
145.400940
20
224.867635
11
145.400940
21
194.867920
0
LINE
8
Layer 1
10
145.400940
20
194.867920
11
148.400760
21
194.867920
0
LINE
8
Layer 1
10
148.400760
20
194.867920
11
148.400760
21
164.867680
0
LINE
8
Layer 1
10
148.400760
20
164.867680
11
145.400940
21
164.867680
0
LINE
8
Layer 1
10
145.400940
20
164.867680
11
145.400940
21
134.867960
0
LINE
8
Layer 1
10
145.400940
20
134.867960
11
148.400760
21
134.867960
0
LINE
8
Layer 1
10
148.400760
20
134.867960
11
148.400760
21
129.867750
0
LINE
8
Layer 1
10
148.400760
20
129.867750
11
150.401160
21
129.867750
0
LINE
8
Layer 1
10
150.401160
20
129.867750
11
150.401160
21
132.867570
0
LINE
8
Layer 1
10
150.401160
20
132.867570
11
180.400870
21
132.867570
0
LINE
8
Layer 1
10
180.400870
20
132.867570
11
180.400870
21
129.867750
0
LINE
8
Layer 1
10
180.400870
20
129.867750
11
185.401090
21
129.867750
0
LINE
8
Layer 1
10
185.401090
20
129.867750
11
185.401090
21
135.367670
0
LINE
8
Layer 1
10
185.401090
20
135.367670
11
182.401270
21
135.367670
0
LINE
8
Layer 1
10
182.401270
20
135.367670
11
182.401270
21
145.367580
0
LINE
8
Layer 1
10
182.401270
20
145.367580
11
185.401090
21
145.367580
0
LINE
8
Layer 1
10
185.401090
20
145.367580
11
185.401090
21
150.867500
0
LINE
8
Layer 1
10
185.401090
20
150.867500
11
210.354090
21
183.769370
0
LINE
8
Layer 1
10
210.354090
20
183.769370
11
207.372870
21
183.769370
0
LINE
8
Layer 1
10
207.372870
20
183.769370
11
207.372870
21
198.896090
0
LINE
8
Layer 1
10
207.372870
20
198.896090
11
207.401270
21
198.896090
0
LINE
8
Layer 1
10
207.401270
20
198.896090
11
210.401090
21
198.896090
0
LINE
8
Layer 1
10
210.401090
20
198.896090
11
210.401090
21
223.867696
0
LINE
8
Layer 1
10
210.401090
20
223.867696
11
207.401270
21
223.867696
0
LINE
8
Layer 1
10
207.401270
20
223.867696
11
207.401270
21
248.867721
0
LINE
8
Layer 1
10
207.401270
20
248.867721
11
210.401090
21
248.867721
0
LINE
8
Layer 1
10
210.401090
20
248.867721
11
210.401090
21
273.867745
0
LINE
8
Layer 1
10
210.401090
20
273.867745
11
210.401090
21
274.089954
0
LINE
8
Layer 1
10
210.401090
20
274.089954
11
207.358380
21
274.089954
0
LINE
8
Layer 1
10
207.358380
20
274.089954
11
207.358380
21
277.867501
0
LINE
8
Layer 1
10
207.358380
20
277.867501
11
185.401070
21
277.867501
0
LINE
8
Layer 1
10
185.401070
20
277.867501
11
185.401070
21
280.292676
0
LINE
8
Layer 1
10
185.401070
20
280.292676
11
182.401250
21
280.292676
0
LINE
8
Layer 1
10
182.401250
20
280.292676
11
182.401250
21
285.292887
0
LINE
8
Layer 1
10
182.401250
20
285.292887
11
185.401070
21
285.292887
0
LINE
8
Layer 1
10
185.401070
20
285.292887
11
185.401070
21
289.867802
0
LINE
8
Layer 1
10
185.401070
20
289.867802
11
180.400850
21
289.867802
0
LINE
8
Layer 1
10
180.400850
20
289.867802
11
180.400850
21
286.867468
0
LINE
8
Layer 1
10
180.400850
20
286.867468
11
150.401140
21
286.867468
0
LINE
8
Layer 1
10
150.401140
20
286.867468
11
150.401140
21
289.867802
0
LINE
8
Layer 1
10
150.401140
20
289.867802
11
148.400760
21
289.867802
0
LINE
8
Layer 1
10
222.951250
20
289.867802
11
222.951250
21
284.867590
0
LINE
8
Layer 1
10
222.951250
20
284.867590
11
219.951430
21
284.867590
0
LINE
8
Layer 1
10
219.951430
20
284.867590
11
219.951430
21
254.867871
0
LINE
8
Layer 1
10
219.951430
20
254.867871
11
222.951250
21
254.867871
0
LINE
8
Layer 1
10
222.951250
20
254.867871
11
222.951250
21
224.867640
0
LINE
8
Layer 1
10
222.951250
20
224.867640
11
219.951430
21
224.867640
0
LINE
8
Layer 1
10
219.951430
20
224.867640
11
219.951430
21
194.867920
0
LINE
8
Layer 1
10
219.951430
20
194.867920
11
222.951250
21
194.867920
0
LINE
8
Layer 1
10
222.951250
20
194.867920
11
222.951250
21
164.867680
0
LINE
8
Layer 1
10
222.951250
20
164.867680
11
219.951430
21
164.867680
0
LINE
8
Layer 1
10
219.951430
20
164.867680
11
219.951430
21
134.867960
0
LINE
8
Layer 1
10
219.951430
20
134.867960
11
222.951250
21
134.867960
0
LINE
8
Layer 1
10
222.951250
20
134.867960
11
222.951250
21
129.867750
0
LINE
8
Layer 1
10
222.951250
20
129.867750
11
224.951650
21
129.867750
0
LINE
8
Layer 1
10
224.951650
20
129.867750
11
224.951650
21
132.867570
0
LINE
8
Layer 1
10
224.951650
20
132.867570
11
254.951360
21
132.867570
0
LINE
8
Layer 1
10
254.951360
20
132.867570
11
254.951360
21
129.867750
0
LINE
8
Layer 1
10
254.951360
20
129.867750
11
259.951580
21
129.867750
0
LINE
8
Layer 1
10
259.951580
20
129.867750
11
259.951580
21
135.367670
0
LINE
8
Layer 1
10
259.951580
20
135.367670
11
256.951760
21
135.367670
0
LINE
8
Layer 1
10
256.951760
20
135.367670
11
256.951760
21
145.367580
0
LINE
8
Layer 1
10
256.951760
20
145.367580
11
259.951580
21
145.367580
0
LINE
8
Layer 1
10
259.951580
20
145.367580
11
259.951580
21
150.867500
0
LINE
8
Layer 1
10
259.951580
20
150.867500
11
284.904580
21
183.769370
0
LINE
8
Layer 1
10
284.904580
20
183.769370
11
281.923360
21
183.769370
0
LINE
8
Layer 1
10
281.923360
20
183.769370
11
281.923360
21
198.896090
0
LINE
8
Layer 1
10
281.923360
20
198.896090
11
281.951760
21
198.896090
0
LINE
8
Layer 1
10
281.951760
20
198.896090
11
284.951580
21
198.896090
0
LINE
8
Layer 1
10
284.951580
20
198.896090
11
284.951580
21
223.867700
0
LINE
8
Layer 1
10
284.951580
20
223.867700
11
281.951760
21
223.867700
0
LINE
8
Layer 1
10
281.951760
20
223.867700
11
281.951760
21
248.867721
0
LINE
8
Layer 1
10
281.951760
20
248.867721
11
284.951580
21
248.867721
0
LINE
8
Layer 1
10
284.951580
20
248.867721
11
284.951580
21
273.867745
0
LINE
8
Layer 1
10
284.951580
20
273.867745
11
284.951580
21
274.089954
0
LINE
8
Layer 1
10
284.951580
20
274.089954
11
281.908870
21
274.089954
0
LINE
8
Layer 1
10
281.908870
20
274.089954
11
281.908870
21
277.867501
0
LINE
8
Layer 1
10
281.908870
20
277.867501
11
259.951560
21
277.867501
0
LINE
8
Layer 1
10
259.951560
20
277.867501
11
259.951560
21
280.292676
0
LINE
8
Layer 1
10
259.951560
20
280.292676
11
256.951740
21
280.292676
0
LINE
8
Layer 1
10
256.951740
20
280.292676
11
256.951740
21
285.292887
0
LINE
8
Layer 1
10
256.951740
20
285.292887
11
259.951560
21
285.292887
0
LINE
8
Layer 1
10
259.951560
20
285.292887
11
259.951560
21
289.867802
0
LINE
8
Layer 1
10
259.951560
20
289.867802
11
254.951340
21
289.867802
0
LINE
8
Layer 1
10
254.951340
20
289.867802
11
254.951340
21
286.867468
0
LINE
8
Layer 1
10
254.951340
20
286.867468
11
224.951630
21
286.867468
0
LINE
8
Layer 1
10
224.951630
20
286.867468
11
224.951630
21
289.867802
0
LINE
8
Layer 1
10
224.951630
20
289.867802
11
222.951250
21
289.867802
0
LINE
8
Layer 1
10
42.374676
20
252.736980
11
41.201786
21
252.561349
0
LINE
8
Layer 1
10
41.201786
20
252.561349
11
40.152395
21
252.062858
0
LINE
8
Layer 1
10
40.152395
20
252.062858
11
39.290266
21
251.284112
0
LINE
8
Layer 1
10
39.290266
20
251.284112
11
38.679158
21
250.267714
0
LINE
8
Layer 1
10
38.679158
20
250.267714
11
38.392574
21
249.116893
0
LINE
8
Layer 1
10
38.392574
20
249.116893
11
38.451535
21
247.956619
0
LINE
8
Layer 1
10
38.451535
20
247.956619
11
38.841080
21
246.862102
0
LINE
8
Layer 1
10
38.841080
20
246.862102
11
39.546249
21
245.908553
0
LINE
8
Layer 1
10
39.546249
20
245.908553
11
40.499798
21
245.203384
0
LINE
8
Layer 1
10
40.499798
20
245.203384
11
41.594315
21
244.813839
0
LINE
8
Layer 1
10
41.594315
20
244.813839
11
42.754589
21
244.754878
0
LINE
8
Layer 1
10
42.754589
20
244.754878
11
43.905410
21
245.041462
0
LINE
8
Layer 1
10
43.905410
20
245.041462
11
44.921808
21
245.652570
0
LINE
8
Layer 1
10
44.921808
20
245.652570
11
45.700554
21
246.514699
0
LINE
8
Layer 1
10
45.700554
20
246.514699
11
46.199045
21
247.564090
0
LINE
8
Layer 1
10
46.199045
20
247.564090
11
46.374676
21
248.736980
0
LINE
8
Layer 1
10
46.374676
20
248.736980
11
46.297107
21
249.520985
0
LINE
8
Layer 1
10
46.297107
20
249.520985
11
46.070194
21
250.267714
0
LINE
8
Layer 1
10
46.070194
20
250.267714
11
45.702629
21
250.956182
0
LINE
8
Layer 1
10
45.702629
20
250.956182
11
45.203103
21
251.565407
0
LINE
8
Layer 1
10
45.203103
20
251.565407
11
44.593878
21
252.064933
0
LINE
8
Layer 1
10
44.593878
20
252.064933
11
43.905410
21
252.432498
0
LINE
8
Layer 1
10
43.905410
20
252.432498
11
43.158681
21
252.659411
0
LINE
8
Layer 1
10
43.158681
20
252.659411
11
42.374676
21
252.736980
0
LINE
8
Layer 1
10
42.374676
20
252.736980
11
42.374676
21
252.736980
0
LINE
8
Layer 1
10
105.467700
20
252.736980
11
104.294810
21
252.561349
0
LINE
8
Layer 1
10
104.294810
20
252.561349
11
103.245419
21
252.062858
0
LINE
8
Layer 1
10
103.245419
20
252.062858
11
102.383290
21
251.284112
0
LINE
8
Layer 1
10
102.383290
20
251.284112
11
101.772182
21
250.267714
0
LINE
8
Layer 1
10
101.772182
20
250.267714
11
101.485598
21
249.116893
0
LINE
8
Layer 1
10
101.485598
20
249.116893
11
101.544559
21
247.956619
0
LINE
8
Layer 1
10
101.544559
20
247.956619
11
101.934104
21
246.862102
0
LINE
8
Layer 1
10
101.934104
20
246.862102
11
102.639273
21
245.908553
0
LINE
8
Layer 1
10
102.639273
20
245.908553
11
103.592822
21
245.203384
0
LINE
8
Layer 1
10
103.592822
20
245.203384
11
104.687339
21
244.813839
0
LINE
8
Layer 1
10
104.687339
20
244.813839
11
105.847613
21
244.754878
0
LINE
8
Layer 1
10
105.847613
20
244.754878
11
106.998434
21
245.041462
0
LINE
8
Layer 1
10
106.998434
20
245.041462
11
108.014832
21
245.652570
0
LINE
8
Layer 1
10
108.014832
20
245.652570
11
108.793578
21
246.514699
0
LINE
8
Layer 1
10
108.793578
20
246.514699
11
109.292069
21
247.564090
0
LINE
8
Layer 1
10
109.292069
20
247.564090
11
109.467700
21
248.736980
0
LINE
8
Layer 1
10
109.467700
20
248.736980
11
109.390131
21
249.520985
0
LINE
8
Layer 1
10
109.390131
20
249.520985
11
109.163218
21
250.267714
0
LINE
8
Layer 1
10
109.163218
20
250.267714
11
108.795653
21
250.956182
0
LINE
8
Layer 1
10
108.795653
20
250.956182
11
108.296127
21
251.565407
0
LINE
8
Layer 1
10
108.296127
20
251.565407
11
107.686902
21
252.064933
0
LINE
8
Layer 1
10
107.686902
20
252.064933
11
106.998434
21
252.432498
0
LINE
8
Layer 1
10
106.998434
20
252.432498
11
106.251705
21
252.659411
0
LINE
8
Layer 1
10
106.251705
20
252.659411
11
105.467700
21
252.736980
0
LINE
8
Layer 1
10
105.467700
20
252.736980
11
105.467700
21
252.736980
0
LINE
8
Layer 1
10
61.805012
20
142.296360
11
64.805012
21
142.296360
0
LINE
8
Layer 1
10
64.805012
20
142.296360
11
64.805012
21
137.296360
0
LINE
8
Layer 1
10
64.805012
20
137.296360
11
61.805012
21
137.296360
0
LINE
8
Layer 1
10
61.805012
20
137.296360
11
61.805012
21
142.296360
0
LINE
8
Layer 1
10
83.360283
20
142.296360
11
86.360283
21
142.296360
0
LINE
8
Layer 1
10
86.360283
20
142.296360
11
86.360283
21
137.296360
0
LINE
8
Layer 1
10
86.360283
20
137.296360
11
83.360283
21
137.296360
0
LINE
8
Layer 1
10
83.360283
20
137.296360
11
83.360283
21
142.296360
0
LINE
8
Layer 1
10
13.132010
20
28.016600
11
13.132010
21
22.516680
0
LINE
8
Layer 1
10
13.132010
20
22.516680
11
10.132190
21
22.516680
0
LINE
8
Layer 1
10
10.132190
20
22.516680
11
10.132190
21
12.516780
0
LINE
8
Layer 1
10
10.132190
20
12.516780
11
13.132010
21
12.516780
0
LINE
8
Layer 1
10
13.132010
20
12.516780
11
13.132010
21
7.016340
0
LINE
8
Layer 1
10
13.132010
20
7.016340
11
137.132190
21
7.016340
0
LINE
8
Layer 1
10
137.132190
20
7.016340
11
137.132190
21
12.516780
0
LINE
8
Layer 1
10
137.132190
20
12.516780
11
140.132010
21
12.516780
0
LINE
8
Layer 1
10
140.132010
20
12.516780
11
140.132010
21
22.516680
0
LINE
8
Layer 1
10
140.132010
20
22.516680
11
137.132190
21
22.516680
0
LINE
8
Layer 1
10
137.132190
20
22.516680
11
137.132190
21
28.016600
0
LINE
8
Layer 1
10
137.132190
20
28.016600
11
124.588770
21
28.016600
0
LINE
8
Layer 1
10
124.588770
20
28.016600
11
124.588770
21
25.016790
0
LINE
8
Layer 1
10
124.588770
20
25.016790
11
104.588440
21
25.016790
0
LINE
8
Layer 1
10
104.588440
20
25.016790
11
104.588440
21
28.016600
0
LINE
8
Layer 1
10
104.588440
20
28.016600
11
84.588630
21
28.016600
0
LINE
8
Layer 1
10
84.588630
20
28.016600
11
84.588630
21
25.016790
0
LINE
8
Layer 1
10
84.588630
20
25.016790
11
64.588810
21
25.016790
0
LINE
8
Layer 1
10
64.588810
20
25.016790
11
64.588810
21
28.016600
0
LINE
8
Layer 1
10
64.588810
20
28.016600
11
44.588480
21
28.016600
0
LINE
8
Layer 1
10
44.588480
20
28.016600
11
44.588480
21
25.016790
0
LINE
8
Layer 1
10
44.588480
20
25.016790
11
24.588670
21
25.016790
0
LINE
8
Layer 1
10
24.588670
20
25.016790
11
24.588670
21
28.016600
0
LINE
8
Layer 1
10
24.588670
20
28.016600
11
13.132010
21
28.016600
0
LINE
8
Layer 1
10
149.880200
20
30.152820
11
149.880200
21
25.677640
0
LINE
8
Layer 1
10
149.880200
20
25.677640
11
146.880380
21
25.677640
0
LINE
8
Layer 1
10
146.880380
20
25.677640
11
146.880380
21
20.578210
0
LINE
8
Layer 1
10
146.880380
20
20.578210
11
149.880200
21
20.578210
0
LINE
8
Layer 1
10
149.880200
20
20.578210
11
149.880200
21
18.153030
0
LINE
8
Layer 1
10
149.880200
20
18.153030
11
273.880380
21
18.153030
0
LINE
8
Layer 1
10
273.880380
20
18.153030
11
273.880380
21
20.578210
0
LINE
8
Layer 1
10
273.880380
20
20.578210
11
276.880200
21
20.578210
0
LINE
8
Layer 1
10
276.880200
20
20.578210
11
276.880200
21
25.677640
0
LINE
8
Layer 1
10
276.880200
20
25.677640
11
273.880380
21
25.677640
0
LINE
8
Layer 1
10
273.880380
20
25.677640
11
273.880380
21
30.152820
0
LINE
8
Layer 1
10
273.880380
20
30.152820
11
261.880080
21
30.152820
0
LINE
8
Layer 1
10
261.880080
20
30.152820
11
261.880080
21
27.153000
0
LINE
8
Layer 1
10
261.880080
20
27.153000
11
241.880260
21
27.153000
0
LINE
8
Layer 1
10
241.880260
20
27.153000
11
241.880260
21
30.152820
0
LINE
8
Layer 1
10
241.880260
20
30.152820
11
221.880450
21
30.152820
0
LINE
8
Layer 1
10
221.880450
20
30.152820
11
221.880450
21
27.153000
0
LINE
8
Layer 1
10
221.880450
20
27.153000
11
201.880120
21
27.153000
0
LINE
8
Layer 1
10
201.880120
20
27.153000
11
201.880120
21
30.152820
0
LINE
8
Layer 1
10
201.880120
20
30.152820
11
181.880310
21
30.152820
0
LINE
8
Layer 1
10
181.880310
20
30.152820
11
181.880310
21
27.153000
0
LINE
8
Layer 1
10
181.880310
20
27.153000
11
161.880500
21
27.153000
0
LINE
8
Layer 1
10
161.880500
20
27.153000
11
161.880500
21
30.152820
0
LINE
8
Layer 1
10
161.880500
20
30.152820
11
149.880200
21
30.152820
0
LINE
8
Layer 1
10
146.877790
20
79.583910
11
146.877790
21
76.584100
0
LINE
8
Layer 1
10
146.877790
20
76.584100
11
149.880200
21
76.584100
0
LINE
8
Layer 1
10
149.880200
20
76.584100
11
149.880200
21
74.584220
0
LINE
8
Layer 1
10
149.880200
20
74.584220
11
146.880380
21
74.584220
0
LINE
8
Layer 1
10
146.880380
20
74.584220
11
146.880380
21
44.583980
0
LINE
8
Layer 1
10
146.880380
20
44.583980
11
149.880200
21
44.583980
0
LINE
8
Layer 1
10
149.880200
20
44.583980
11
149.880200
21
42.583590
0
LINE
8
Layer 1
10
149.880200
20
42.583590
11
161.880500
21
42.583590
0
LINE
8
Layer 1
10
161.880500
20
42.583590
11
161.880500
21
39.583770
0
LINE
8
Layer 1
10
161.880500
20
39.583770
11
181.880310
21
39.583770
0
LINE
8
Layer 1
10
181.880310
20
39.583770
11
181.880310
21
42.583590
0
LINE
8
Layer 1
10
181.880310
20
42.583590
11
201.880120
21
42.583590
0
LINE
8
Layer 1
10
201.880120
20
42.583590
11
201.880120
21
39.583770
0
LINE
8
Layer 1
10
201.880120
20
39.583770
11
221.880450
21
39.583770
0
LINE
8
Layer 1
10
221.880450
20
39.583770
11
221.880450
21
42.583590
0
LINE
8
Layer 1
10
221.880450
20
42.583590
11
241.880260
21
42.583590
0
LINE
8
Layer 1
10
241.880260
20
42.583590
11
241.880260
21
39.583770
0
LINE
8
Layer 1
10
241.880260
20
39.583770
11
261.880080
21
39.583770
0
LINE
8
Layer 1
10
261.880080
20
39.583770
11
261.880080
21
42.583590
0
LINE
8
Layer 1
10
261.880080
20
42.583590
11
273.880380
21
42.583590
0
LINE
8
Layer 1
10
273.880380
20
42.583590
11
273.880380
21
44.583980
0
LINE
8
Layer 1
10
273.880380
20
44.583980
11
276.880200
21
44.583980
0
LINE
8
Layer 1
10
276.880200
20
44.583980
11
276.880200
21
74.584220
0
LINE
8
Layer 1
10
276.880200
20
74.584220
11
273.880380
21
74.584220
0
LINE
8
Layer 1
10
273.880380
20
74.584220
11
273.880380
21
76.584100
0
LINE
8
Layer 1
10
273.880380
20
76.584100
11
276.880200
21
76.584100
0
LINE
8
Layer 1
10
276.880200
20
76.584100
11
276.880200
21
79.583910
0
LINE
8
Layer 1
10
276.880200
20
79.583910
11
271.879980
21
79.583910
0
LINE
8
Layer 1
10
271.879980
20
79.583910
11
271.879980
21
76.584100
0
LINE
8
Layer 1
10
271.879980
20
76.584100
11
241.879750
21
76.584100
0
LINE
8
Layer 1
10
241.879750
20
76.584100
11
241.879750
21
79.583910
0
LINE
8
Layer 1
10
241.879750
20
79.583910
11
211.880550
21
79.583910
0
LINE
8
Layer 1
10
211.880550
20
79.583910
11
211.880550
21
76.584100
0
LINE
8
Layer 1
10
211.880550
20
76.584100
11
181.877730
21
76.584100
0
LINE
8
Layer 1
10
181.877730
20
76.584100
11
181.877730
21
79.583910
0
LINE
8
Layer 1
10
181.877730
20
79.583910
11
146.877790
21
79.583910
0
LINE
8
Layer 1
10
211.880550
20
126.014670
11
211.880550
21
123.014850
0
LINE
8
Layer 1
10
211.880550
20
123.014850
11
181.354760
21
123.014850
0
LINE
8
Layer 1
10
181.354760
20
123.014850
11
181.354760
21
125.969710
0
LINE
8
Layer 1
10
181.354760
20
125.969710
11
146.880380
21
125.969710
0
LINE
8
Layer 1
10
146.880380
20
125.969710
11
146.880380
21
123.014850
0
LINE
8
Layer 1
10
146.880380
20
123.014850
11
149.880710
21
123.014850
0
LINE
8
Layer 1
10
149.880710
20
123.014850
11
149.880710
21
121.014980
0
LINE
8
Layer 1
10
149.880710
20
121.014980
11
146.880380
21
121.014980
0
LINE
8
Layer 1
10
146.880380
20
121.014980
11
146.880380
21
91.014740
0
LINE
8
Layer 1
10
146.880380
20
91.014740
11
149.880710
21
91.014740
0
LINE
8
Layer 1
10
149.880710
20
91.014740
11
149.880710
21
89.014860
0
LINE
8
Layer 1
10
149.880710
20
89.014860
11
161.881010
21
89.014860
0
LINE
8
Layer 1
10
161.881010
20
89.014860
11
161.881010
21
86.015050
0
LINE
8
Layer 1
10
161.881010
20
86.015050
11
181.880830
21
86.015050
0
LINE
8
Layer 1
10
181.880830
20
86.015050
11
181.880830
21
89.014860
0
LINE
8
Layer 1
10
181.880830
20
89.014860
11
201.880640
21
89.014860
0
LINE
8
Layer 1
10
201.880640
20
89.014860
11
201.880640
21
86.015050
0
LINE
8
Layer 1
10
201.880640
20
86.015050
11
221.880970
21
86.015050
0
LINE
8
Layer 1
10
221.880970
20
86.015050
11
221.880970
21
89.014860
0
LINE
8
Layer 1
10
221.880970
20
89.014860
11
241.880780
21
89.014860
0
LINE
8
Layer 1
10
241.880780
20
89.014860
11
241.880780
21
86.015050
0
LINE
8
Layer 1
10
241.880780
20
86.015050
11
261.880080
21
86.015050
0
LINE
8
Layer 1
10
261.880080
20
86.015050
11
261.880080
21
89.014860
0
LINE
8
Layer 1
10
261.880080
20
89.014860
11
273.880380
21
89.014860
0
LINE
8
Layer 1
10
273.880380
20
89.014860
11
273.880380
21
91.014740
0
LINE
8
Layer 1
10
273.880380
20
91.014740
11
276.880710
21
91.014740
0
LINE
8
Layer 1
10
276.880710
20
91.014740
11
276.880710
21
121.014980
0
LINE
8
Layer 1
10
276.880710
20
121.014980
11
273.880380
21
121.014980
0
LINE
8
Layer 1
10
273.880380
20
121.014980
11
273.880380
21
123.014850
0
LINE
8
Layer 1
10
273.880380
20
123.014850
11
276.880200
21
123.014850
0
LINE
8
Layer 1
10
276.880200
20
123.014850
11
276.880200
21
126.014670
0
LINE
8
Layer 1
10
276.880200
20
126.014670
11
271.879980
21
126.014670
0
LINE
8
Layer 1
10
271.879980
20
126.014670
11
271.879980
21
123.014850
0
LINE
8
Layer 1
10
271.879980
20
123.014850
11
241.880260
21
123.014850
0
LINE
8
Layer 1
10
241.880260
20
123.014850
11
241.880260
21
126.014670
0
LINE
8
Layer 1
10
241.880260
20
126.014670
11
211.880550
21
126.014670
 0 
ENDSEC
 0 
EOF